<svg width="185" height="31" viewBox="0 0 185 31" fill="none" xmlns="http://www.w3.org/2000/svg">
<path d="M54.3656 24.16H59.2376L51.6536 4.6H47.1176L39.5336 24.16H44.0456L45.4136 20.368H52.9976L54.3656 24.16ZM46.7576 16.576L49.2056 9.76L51.6536 16.576H46.7576ZM64.0813 24.16H68.4493V18.952H71.5933C76.6813 18.952 79.6573 16.12 79.6573 11.752C79.6573 7.432 76.6813 4.6 71.5933 4.6H64.0813V24.16ZM68.4493 15.088V8.464H71.4013C73.8253 8.464 75.2893 9.592 75.2893 11.752C75.2893 13.936 73.8253 15.088 71.4013 15.088H68.4493ZM84.651 15.496C84.651 21.04 88.227 24.64 93.603 24.64C98.979 24.64 102.555 21.04 102.555 15.496V4.6H98.187V15.496C98.187 18.616 96.459 20.704 93.603 20.704C90.747 20.704 89.019 18.616 89.019 15.496V4.6H84.651V15.496ZM107.214 17.656C107.262 21.544 110.19 24.64 114.894 24.64C119.598 24.64 122.718 21.616 122.718 16.936V4.6H118.35V16.936C118.35 19.192 117.054 20.704 114.894 20.704C112.734 20.704 111.582 19.096 111.582 17.656H107.214ZM128.76 4.6V24.16H133.128V4.6H128.76ZM139.468 24.16H143.836V13.432L148.372 20.944H151.012L155.548 13.432V24.16H159.916V4.6H156.436L149.692 15.544L142.948 4.6H139.468V24.16ZM179.599 24.16H184.471L176.887 4.6H172.351L164.767 24.16H169.279L170.647 20.368H178.231L179.599 24.16ZM171.991 16.576L174.439 9.76L176.887 16.576H171.991Z" fill="#2C473E"/>
<path fill-rule="evenodd" clip-rule="evenodd" d="M15.5 31C24.0604 31 31 24.0604 31 15.5C31 6.93959 24.0604 0 15.5 0C6.93959 0 0 6.93959 0 15.5C0 24.0604 6.93959 31 15.5 31ZM21.3907 17.62H17.7367L16.7107 14.776H11.0227L10.0048 17.5976L6.68084 17.5835L6.68068 17.62H6.61267L12.3007 2.95001H15.7027L21.3907 17.62ZM6.68068 17.62L6.66697 20.8595L10.5729 20.876L10.5629 23.234C10.5468 27.05 12.6613 29.2909 15.9373 29.3048C19.1773 29.3185 21.3107 27.0955 21.3269 23.2796L21.3507 17.6456L10.0048 17.5976L9.99667 17.62H6.68068ZM13.8667 6.82001L12.0307 11.932H15.7027L13.8667 6.82001ZM13.4709 20.8883L18.4389 20.9093L18.4295 23.1233C18.4218 24.9413 17.5711 26.0357 15.9512 26.0288C14.3132 26.0219 13.4538 24.9203 13.4615 23.1023L13.4709 20.8883ZM25.6735 7.34063C25.7548 8.86322 25.8086 9.87197 25.0722 11.0069C23.9601 12.712 21.8397 14.413 19.897 12.5853C21.7712 11.6608 22.9492 10.2178 23.3003 8.58421C23.1367 8.78228 22.9782 8.98195 22.8203 9.18073C21.9288 10.3036 21.0593 11.3985 19.4326 12.0212C19.2392 10.358 19.3091 9.67737 20.996 8.04734C22.411 6.6646 24.0688 6.03773 25.6106 5.46644C25.6114 6.17768 25.6442 6.79246 25.6735 7.34063Z" fill="#2C473E"/>
</svg>
